<svg xmlns:xlink="http://www.w3.org/1999/xlink" xmlns="http://www.w3.org/2000/svg" width="32" height="32" viewBox="0 0 32 32">
  <defs>
    <style>
      .cls-1 {
        fill: none;
      }

      .cls-2, .cls-7 {
        isolation: isolate;
      }

      .cls-3 {
        fill: #3a4ba7;
      }

      .cls-4 {
        fill: #505fb1;
      }

      .cls-5 {
        fill: #929bce;
      }

      .cls-6 {
        fill: #ffb900;
      }

      .cls-7 {
        fill: #989ba3;
        mix-blend-mode: color-burn;
      }

      .cls-8 {
        fill: #fff;
      }
    </style>
  </defs>
  <g id="Group_2923" data-name="Group 2923" transform="translate(-1848 -40)">
    <rect id="Rectangle_2009" data-name="Rectangle 2009" class="cls-1" width="32" height="32" transform="translate(1848 40)"/>
    <g id="Asset_6" data-name="Asset 6" class="cls-2" transform="translate(1849 44.589)">
      <g id="Layer_2" data-name="Layer 2">
        <g id="Layer_1" data-name="Layer 1">
          <path id="Path_2133" data-name="Path 2133" class="cls-3" d="M22.272,9.53V29.487H12.9a2.765,2.765,0,0,1-2.762-2.765V12.292A2.762,2.762,0,0,1,12.9,9.53Z" transform="translate(-7.109 -6.682)"/>
          <path id="Path_2134" data-name="Path 2134" class="cls-4" d="M62.859,12.292V26.722a2.756,2.756,0,0,1-1.494,2.451,2.708,2.708,0,0,1-1.27.3H50.73V9.53h9.364a2.765,2.765,0,0,1,2.765,2.762Z" transform="translate(-35.567 -6.682)"/>
          <path id="Path_2135" data-name="Path 2135" class="cls-5" d="M61.244,42.61h4.325a.924.924,0,0,1,.933.921v9.164H60.32V43.53A.924.924,0,0,1,61.244,42.61Z" transform="translate(-42.291 -29.874)"/>
          <path id="Path_2136" data-name="Path 2136" class="cls-6" d="M25.107,0H5.081a3.356,3.356,0,0,0-3.1,2.062L0,6.821H30L28.242,2.17A3.354,3.354,0,0,0,25.107,0Z"/>
          <path id="Path_2137" data-name="Path 2137" class="cls-5" d="M14.87,22.75a2.373,2.373,0,1,1-4.743,0Z" transform="translate(-7.099 -15.95)"/>
          <path id="Path_2138" data-name="Path 2138" class="cls-5" d="M27.98,22.75a2.373,2.373,0,1,1-4.743,0Z" transform="translate(-16.29 -15.95)"/>
          <path id="Path_2139" data-name="Path 2139" class="cls-5" d="M41.05,22.75a2.373,2.373,0,1,1-4.743,0Z" transform="translate(-25.454 -15.95)"/>
          <path id="Path_2140" data-name="Path 2140" class="cls-5" d="M54.12,22.75a2.373,2.373,0,1,1-4.743,0Z" transform="translate(-34.617 -15.95)"/>
          <path id="Path_2141" data-name="Path 2141" class="cls-5" d="M67.19,22.75a2.373,2.373,0,1,1-4.743,0Z" transform="translate(-43.781 -15.95)"/>
          <path id="Path_2142" data-name="Path 2142" class="cls-5" d="M80.26,22.75a2.373,2.373,0,1,1-4.743,0Z" transform="translate(-52.944 -15.95)"/>
          <ellipse id="Ellipse_298" data-name="Ellipse 298" class="cls-7" cx="5.231" cy="5.44" rx="5.231" ry="5.44" transform="translate(9.973 3.161)"/>
          <circle id="Ellipse_299" data-name="Ellipse 299" class="cls-8" cx="1.835" cy="1.835" r="1.835" transform="translate(13.37 6.767)"/>
        </g>
      </g>
    </g>
  </g>
</svg>