<svg width="0" height="0" class="hidden">
  <symbol xmlns="http://www.w3.org/2000/svg" xmlns:xlink="http://www.w3.org/1999/xlink" viewBox="0 0 164.117 48" id="logo">
    <defs>
      <linearGradient id="a" x1="0.815" y1="0.259" x2="0.042" y2="0.98" gradientUnits="objectBoundingBox">
        <stop offset="0" stop-color="#f6cc36"></stop>
        <stop offset="1" stop-color="#fe8a3b"></stop>
      </linearGradient>
      <linearGradient id="b" x1="0.733" y1="0.23" x2="-0.056" y2="0.752" xlink:href="#a"></linearGradient>
      <linearGradient id="c" x1="0.897" y1="0.092" x2="-0.068" y2="0.809" xlink:href="#a"></linearGradient>
      <linearGradient id="d" x1="0.307" y1="0.673" x2="0.985" y2="-0.126" xlink:href="#a"></linearGradient>
      <linearGradient id="e" x1="0" y1="0.5" x2="1" y2="0.5" xlink:href="#a"></linearGradient>
      <linearGradient id="f" x1="0.768" y1="0.184" x2="0.081" y2="1.052" xlink:href="#a"></linearGradient>
      <linearGradient id="g" x1="0.725" y1="0.229" x2="-0.108" y2="1.217" xlink:href="#a"></linearGradient>
    </defs>
    <g transform="translate(0 0.003)">
      <g transform="translate(0 -0.003)">
        <path d="M215.712,47.274l-.661,11.985a5.927,5.927,0,0,0,5.918,6.255h5.085a6.4,6.4,0,0,0,6.395-6.039l.671-12.128a5.816,5.816,0,0,0-5.81-6.137h-5.187a6.42,6.42,0,0,0-6.411,6.064Zm9.169,12.78H222.72a1.99,1.99,0,0,1-1.971-2.1l.544-9.144a2.374,2.374,0,0,1,2.371-2.225h1.773a2.524,2.524,0,0,1,2.517,2.673l-.5,8.4A2.543,2.543,0,0,1,224.881,60.054Z" transform="translate(-146.696 -28.111)"></path>
        <path d="M275.292,47.274l-.661,11.985a5.927,5.927,0,0,0,5.921,6.255h5.085a6.408,6.408,0,0,0,6.4-6.04l.667-12.127a5.816,5.816,0,0,0-5.81-6.137H281.7A6.417,6.417,0,0,0,275.292,47.274Zm9.179,12.78H282.3a1.986,1.986,0,0,1-1.983-2.1l.54-9.144a2.374,2.374,0,0,1,2.371-2.225H285a2.524,2.524,0,0,1,2.517,2.673l-.5,8.4a2.562,2.562,0,0,1-2.552,2.4Z" transform="translate(-187.34 -28.111)"></path>
        <path d="M173.892,40.994l-10.806-.044a1.491,1.491,0,0,0-1.465,1.208l-.388,2.447a1.494,1.494,0,0,0,1.475,1.764h7.475L160.55,58.221l-.47,3.477a3.177,3.177,0,0,0,2.946,3.569h11.922a1.2,1.2,0,0,0,1.179-.972l.528-3.01a1.2,1.2,0,0,0-1.179-1.43l-9.169-.054,10.231-12.681.489-2.409A3.156,3.156,0,0,0,173.892,40.994Z" transform="translate(-109.183 -27.934)"></path>
        <path d="M351.234,44.582l-.143,2.682-.922,12.4a6.121,6.121,0,0,1-6.105,5.67h-3.226a.528.528,0,0,1-.528-.582l.4-4.361a.534.534,0,0,1,.528-.48h.731c1.719,0,2.813-.953,2.911-2.19l.658-7.892h0l.048-1.907a1.411,1.411,0,0,0-1.414-1.516l-2.454.029a1.963,1.963,0,0,0-1.907,2.1l-1.271,16.778H333l1-18.145A6.531,6.531,0,0,1,340.533,41h7.31a3.4,3.4,0,0,1,3.391,3.582Z" transform="translate(-227.164 -27.968)"></path>
        <path d="M431.644,64.123l-1.57-2.139-5.915-7.494,6.08-7.024a1.977,1.977,0,0,0-.149-2.74l-1.176-1.087a1.971,1.971,0,0,0-2.832.153l-5.419,6.271-5.457-6.913s-1.519-2-5.158-1.99H399.092a5.861,5.861,0,0,0-5.842,5.451l-.826,12.815c-.235,3.388,3.057,6.055,5.654,6.055h8.534l.785-5.46h-8.314a1.17,1.17,0,0,1-1.166-1.246l.245-2.727h8.645a1.37,1.37,0,0,0,1.367-1.249l.235-2.676a1.37,1.37,0,0,0-1.363-1.5h-8.55l.134-2.133a2.145,2.145,0,0,1,2.145-2.009l8.7.048a2.784,2.784,0,0,1,2.269,1.055l5.273,6.712-4.392,5.079a1.872,1.872,0,0,1-1.414.636l-2.145-.032-.772,5.451,2.914.041a7.548,7.548,0,0,0,5.705-2.609l3.579-4.132,5.3,6.751h5.158a.852.852,0,0,0,.7-1.357Z" transform="translate(-267.693 -28.077)"></path>
        <path d="M.124,14.551,0,33.154a5.4,5.4,0,0,0,2.667,4.691l16.047,9.411a5.4,5.4,0,0,0,5.4.035L40.291,38.1a5.4,5.4,0,0,0,2.727-4.653l.127-18.6a5.4,5.4,0,0,0-2.67-4.691L24.422.739A5.4,5.4,0,0,0,19.019.7L2.86,9.9A5.4,5.4,0,0,0,.124,14.551Z" transform="translate(0 0.003)"></path>
        <path d="M85.442,97.023l-12.694,7.215-.1.051a.753.753,0,0,1-1.109-.671.731.731,0,0,1,.1-.359.719.719,0,0,1,.051-.1,1.269,1.269,0,0,0,.07-.108l7.275-12.4,6.43,3.782a1.491,1.491,0,0,1-.019,2.581Z" transform="translate(-48.803 -61.845)"></path>
        <path d="M48.066,47.1a.636.636,0,0,0-.362.118,1.03,1.03,0,0,1-.111.067L34.9,54.48a4.971,4.971,0,0,1-4.942-.025l-6.236-3.614L16.207,63.659a2.482,2.482,0,0,0,.887,3.4l11.124,6.515,1.452.855a2.7,2.7,0,0,0,.359.178h0a4.961,4.961,0,0,0,4.631-.032.753.753,0,0,1-1.109-.671.731.731,0,0,1,.1-.359.719.719,0,0,1,.06-.1,1.27,1.27,0,0,0,.07-.108l7.275-12.4,7.507-12.808.06-.108h0a.6.6,0,0,0,.029-.067.578.578,0,0,0,.044-.222A.636.636,0,0,0,48.066,47.1Z" transform="translate(-10.823 -32.129)"></path>
        <path d="M50.281,22.22l-.092-.057L39.837,16.07l-2.257-1.325a4.964,4.964,0,0,0-4.98-.035L20.644,21.534a1.983,1.983,0,0,0-.019,3.439l5.67,3.328,6.236,3.614a4.971,4.971,0,0,0,4.942.025l12.694-7.2a1.03,1.03,0,0,0,.111-.067.631.631,0,0,1,1,.518.578.578,0,0,1-.044.222A2.473,2.473,0,0,0,50.281,22.22Z" transform="translate(-13.397 -9.589)"></path>
        <path d="M85.462,94.446l-5.883-3.458-.547-.318-7.275,12.4a.952.952,0,0,1-.07.1.521.521,0,0,0-.051.083.753.753,0,0,0,.655,1.119.791.791,0,0,0,.277-.051.48.48,0,0,0,.083-.038h0a.551.551,0,0,0,.1-.051L85.44,97.02a1.494,1.494,0,0,0,.022-2.574Zm-.318,2.031-12.694,7.215-.079.041a.118.118,0,0,1-.057,0h-.032a.121.121,0,0,1-.048-.029.114.114,0,0,1-.022-.032h0a.086.086,0,0,1,0-.038.155.155,0,0,1,0-.048l.022-.032c.035-.051.07-.1.1-.153l6.929-11.868L85.141,95a.858.858,0,0,1,0,1.481Z" transform="translate(-48.804 -61.852)"></path>
        <path d="M84.41,92.078l-5.88-3.442-.55-.318L77.433,88l-7.6,12.936-.032.051a1.148,1.148,0,0,0-.1.153,1.436,1.436,0,0,0-.172.658,1.3,1.3,0,0,0,0,.194.571.571,0,0,0,.019.1,1.187,1.187,0,0,0,.038.143,1.148,1.148,0,0,0,.051.133,1.348,1.348,0,0,0,.283.413,1.4,1.4,0,0,0,.165.143,1.354,1.354,0,0,0,.814.27h0a1.36,1.36,0,0,0,.6-.137l.051-.025.111-.06,12.694-7.211a2.129,2.129,0,0,0,.025-3.684Zm-.655,2.578L71.061,101.87l-.079.041a.118.118,0,0,1-.057,0h-.032a.121.121,0,0,1-.048-.029.137.137,0,0,1-.022-.032h0a.086.086,0,0,1,0-.038.156.156,0,0,1,0-.048l.022-.032c.035-.051.07-.1.1-.153l6.945-11.868,5.88,3.461a.858.858,0,0,1,0,1.481Z" transform="translate(-47.43 -60.03)"></path>
        <path d="M86.96,97.595a.836.836,0,0,1-.432.737l-12.694,7.215-.079.041a.118.118,0,0,1-.057,0h-.032a.121.121,0,0,1-.048-.029.115.115,0,0,1-.022-.032h0a.086.086,0,0,1,0-.038.156.156,0,0,1,0-.048l.022-.032c.035-.051.07-.1.1-.153L80.661,93.39l5.88,3.461a.842.842,0,0,1,.42.744Z" transform="translate(-50.203 -63.707)"></path>
        <path d="M48.069,47.1a.636.636,0,0,0-.366.118,1.288,1.288,0,0,1-.111.067L34.9,54.48a4.964,4.964,0,0,1-4.939-.025l-6.236-3.614-.318.55-7.2,12.268a2.482,2.482,0,0,0,.887,3.4l11.124,6.515,1.452.855a2.9,2.9,0,0,0,.359.178h0a4.964,4.964,0,0,0,3.464.432,5.047,5.047,0,0,0,1.176-.451.753.753,0,0,1-1.014-1.03.521.521,0,0,1,.051-.108.953.953,0,0,0,.07-.111l7.275-12.4.318-.55,7.186-12.259c.019-.038.041-.073.06-.108h0l.022-.048a.2.2,0,0,0,0-.022.563.563,0,0,0,.044-.219A.636.636,0,0,0,48.069,47.1ZM33.227,73.035l-.032.051a1.15,1.15,0,0,0-.1.153,1.437,1.437,0,0,0-.172.658,1.3,1.3,0,0,0,0,.194.953.953,0,0,0,.019.1,1.189,1.189,0,0,0,.038.143,1.147,1.147,0,0,0,.051.133,4.3,4.3,0,0,1-2.613-.385L30.265,74a2.26,2.26,0,0,1-.28-.137L17.418,66.51a1.847,1.847,0,0,1-.661-2.543l7.192-12.259,5.689,3.305a5.626,5.626,0,0,0,5.575.029L47.9,47.85l.041-.025a.687.687,0,0,0,.1-.06Z" transform="translate(-10.823 -32.129)"></path>
        <path d="M47.6,45.493l-.07-.067a1.271,1.271,0,0,0-.674-.3,1.139,1.139,0,0,0-.149,0H46.6a1.493,1.493,0,0,0-.238.041,1.243,1.243,0,0,0-.222.086,1.316,1.316,0,0,0-.159.1.34.34,0,0,1-.067.041L33.224,52.578a4.338,4.338,0,0,1-4.307-.022l-6.233-3.614-.55-.318-.318.547-.318.547L14.3,61.989a3.121,3.121,0,0,0,1.112,4.268L27.98,73.624a3.62,3.62,0,0,0,.4.2,5.584,5.584,0,0,0,5.181-.016l.051-.025-.311-.563-.3-.559a.118.118,0,0,1-.057,0h-.032a.121.121,0,0,1-.048-.029.114.114,0,0,1-.022-.032h0a.086.086,0,0,1,0-.038.156.156,0,0,1,0-.048l.022-.032c.035-.051.07-.1.1-.153L39.92,60.463l.318-.547.318-.547,7.2-12.278.137-.254v-.029h0a1.3,1.3,0,0,0,.073-.413A1.271,1.271,0,0,0,47.6,45.493ZM31.867,71.685l-.032.051a1.15,1.15,0,0,0-.1.153,1.437,1.437,0,0,0-.172.658,1.3,1.3,0,0,0,0,.194.572.572,0,0,0,.019.1,1.189,1.189,0,0,0,.038.143,1.147,1.147,0,0,0,.051.133,4.3,4.3,0,0,1-2.613-.385l-.156-.079a2.263,2.263,0,0,1-.28-.137L16.058,65.161a1.847,1.847,0,0,1-.661-2.543l7.192-12.259h0l5.689,3.305a5.626,5.626,0,0,0,5.575.029L46.544,46.5l.041-.025a.686.686,0,0,0,.1-.06Z" transform="translate(-9.463 -30.78)"></path>
        <path d="M49.4,49.16,34.582,74.44l-.032.051a1.149,1.149,0,0,0-.1.153,1.437,1.437,0,0,0-.172.658,1.3,1.3,0,0,0,0,.194.572.572,0,0,0,.019.1,1.189,1.189,0,0,0,.038.143,1.148,1.148,0,0,0,.051.133,4.3,4.3,0,0,1-2.613-.385l-.156-.079a2.26,2.26,0,0,1-.28-.137L18.773,67.915a1.847,1.847,0,0,1-.661-2.543L25.3,53.114l5.689,3.305a5.626,5.626,0,0,0,5.575.029l12.691-7.192.041-.025A.687.687,0,0,0,49.4,49.16Z" transform="translate(-12.178 -33.535)"></path>
        <path d="M51.47,24.234a2.47,2.47,0,0,0-1.189-2.015l-.092-.057L39.837,16.069l-2.257-1.325a4.971,4.971,0,0,0-4.98-.038L20.644,21.532a1.983,1.983,0,0,0-.019,3.439l5.123,3.007.55.318,6.236,3.617a4.964,4.964,0,0,0,4.939.025l12.694-7.2a1.286,1.286,0,0,0,.111-.067.636.636,0,0,1,.988.518.563.563,0,0,1-.045.219,2.457,2.457,0,0,0,.248-1.179Zm-.823-.318h-.108a.985.985,0,0,0-.238.041,1.243,1.243,0,0,0-.222.086,1.316,1.316,0,0,0-.159.1.34.34,0,0,1-.067.041L37.158,31.385a4.338,4.338,0,0,1-4.307-.022l-6.233-3.614-5.673-3.328a1.351,1.351,0,0,1,0-2.339l11.969-6.824a4.348,4.348,0,0,1,4.345.032L49.846,22.7l.1.067a1.827,1.827,0,0,1,.845,1.17,1.141,1.141,0,0,0-.149-.01Z" transform="translate(-13.397 -9.587)"></path>
        <path d="M49.253,20.29,36.54,12.812a5.616,5.616,0,0,0-5.619-.038L18.974,19.6a2.622,2.622,0,0,0-.025,4.539l5.123,3.007.55.318.547.318h0L30.858,31.1a5.626,5.626,0,0,0,5.575.029l12.691-7.192.041-.025a.527.527,0,0,0,.114-.1l.582.261.578.257a.814.814,0,0,0,.035-.076h0a3.089,3.089,0,0,0-1.22-3.96Zm.038,2.25h-.108a.985.985,0,0,0-.238.041,1.243,1.243,0,0,0-.222.086,1.316,1.316,0,0,0-.159.1.34.34,0,0,1-.067.041L35.8,30.009a4.338,4.338,0,0,1-4.307-.022l-6.233-3.614-5.673-3.328a1.351,1.351,0,0,1,0-2.339L31.56,13.883a4.348,4.348,0,0,1,4.345.032L48.491,21.32l.1.067a1.827,1.827,0,0,1,.845,1.17,1.141,1.141,0,0,0-.149-.01Z" transform="translate(-12.042 -8.212)"></path>
        <path d="M52.151,25.3a1.14,1.14,0,0,0-.149,0h-.108a.985.985,0,0,0-.238.041,1.242,1.242,0,0,0-.222.086,1.316,1.316,0,0,0-.159.1.34.34,0,0,1-.067.041L38.513,32.752a4.338,4.338,0,0,1-4.307-.022l-6.233-3.614L22.3,25.788a1.351,1.351,0,0,1,0-2.339L34.27,16.626a4.348,4.348,0,0,1,4.345.032L51.2,24.063l.1.067a1.827,1.827,0,0,1,.845,1.17Z" transform="translate(-14.753 -10.955)"></path>
      </g>
    </g>
  </symbol>
  <symbol xmlns:xlink="http://www.w3.org/1999/xlink" xmlns="http://www.w3.org/2000/svg" viewBox="0 0 32 32" id="bakery">
    <g id="Group_2408" transform="translate(-1848 -40)">
      <rect id="Rectangle_2009" width="32" height="32" transform="translate(1848 40)" fill="none"></rect>
      <g id="B4" transform="translate(1850 45.282)">
        <g id="Layer_2" transform="translate(0 0.013)">
          <g id="Layer_1" transform="translate(0)">
            <path id="Path_2020" d="M11.7,77.77H37.588v4.483A2.888,2.888,0,0,1,34.7,85.141H14.588A2.888,2.888,0,0,1,11.7,82.253V77.77Z" transform="translate(-9.588 -63.733)" fill="#ffb900"></path>
            <path id="Path_2021" d="M57.6,27.711l-3.849,13.4a2.222,2.222,0,0,1-2.749,1.522L39.429,39.3a2.224,2.224,0,0,1-1.524-2.751l1.006-3.5L44.975,29.7l.82-.45.765-.422L51.655,26Z" transform="translate(-30.991 -21.309)" fill="#475fb4"></path>
            <path id="Path_2022" d="M94.734,24.319a3.23,3.23,0,0,1-2.078,2.166h-.009a3.21,3.21,0,0,1-1.892.036L82,24l.765-.422L89.958,19.6l2.578.74a3.217,3.217,0,0,1,2.2,3.979Z" transform="translate(-67.197 -16.064)" fill="#8f9bd0"></path>
            <path id="Path_2023" d="M88.945,44.5l-.018.058-1.7,5.737-1.914-1.522L77.46,42.522l.816-.45.765-.422Z" transform="translate(-63.476 -34.133)" fill="#475fb4"></path>
            <path id="Path_2024" d="M46.222,23.678a3.208,3.208,0,0,1-1.986,2.13l-.09.034-2.7,9.387A2.222,2.222,0,0,1,38.7,36.752L27.122,33.419A2.224,2.224,0,0,1,25.6,30.668l.361-1.264,8.929-4.95.82-.45.765-.422L43.671,19.6l.352.1a3.215,3.215,0,0,1,2.2,3.972Z" transform="translate(-20.91 -16.064)" fill="#2e4aaa"></path>
            <path id="Path_2025" d="M45.692,3.583,38.507,7.568l-.758.422-.816.451L28,13.388l2.329-8.111A3.217,3.217,0,0,1,33.688.135Z" transform="translate(-22.945 -0.013)" fill="#475fb4"></path>
            <ellipse id="Ellipse_237" cx="4.47" cy="4.649" rx="4.47" ry="4.649" transform="translate(0 9.452)" fill="#a4b0da"></ellipse>
            <circle id="Ellipse_238" cx="1.567" cy="1.567" r="1.567" transform="translate(2.903 12.534)" fill="#fff"></circle>
          </g>
        </g>
      </g>
    </g>
  </symbol>
  <symbol xmlns:xlink="http://www.w3.org/1999/xlink" xmlns="http://www.w3.org/2000/svg" viewBox="0 0 32 32" id="chocolate">
    <g id="Group_2415" transform="translate(-1848 -40)">
      <rect id="Rectangle_2009" width="32" height="32" transform="translate(1848 40)" fill="none"></rect>
      <g id="B1" transform="translate(1850.012 41.995)">
        <g id="Layer_2" transform="translate(-0.011 -0.015)">
          <g id="Layer_1" transform="translate(0 0)">
            <path id="Path_2009" d="M22.831,10.257a2.108,2.108,0,0,0-1.75-3.647A2.111,2.111,0,0,0,17.925,4.1a2.108,2.108,0,0,0-3.934-.9,2.108,2.108,0,0,0-3.882.564h0a1.98,1.98,0,0,0-.458.119l.1.045-.1-.045H9.637a1.5,1.5,0,0,0-.173-.062h0C9.4,3.8,9.34,3.788,9.276,3.774h-.04L9.089,3.75h-.42l-.111.014H8.5l-.114.024H8.335l-.119.036-.047.014-.121.047-.04.017-.13.064-.028.014a2.023,2.023,0,0,0-.3.2L7.528,4.2l-.095.081-.043.04-.071.076-.036.036c-.031.036-.059.071-.088.109l-.033.043-.057.081-.031.047c-.024.038-.047.078-.069.119l-.021.04c-.014.031-.031.062-.043.092a.474.474,0,0,0-.024.05c-.014.036-.028.071-.04.107l-.014.038c-.014.04-.026.083-.038.123s0,.033-.012.05l-.021.1v.043c0,.014-.014.092-.019.138a.107.107,0,0,0,0,.045V6a.5.5,0,0,0,0,.062.7.7,0,0,0,.019.123.184.184,0,0,1,0,.064c0,.021.021.085.031.128l.014.052c.019.059.038.119.062.178l-.095,0h-.55l-.071.014L6.1,6.641l-.069.017-.083.024L5.883,6.7,5.8,6.733l-.062.026L5.643,6.8,5.6,6.826c-.045.024-.09.047-.135.076l-.026.017a1.013,1.013,0,0,0-.1.071l-.045.033L5.2,7.086l-.045.04L5.088,7.2l-.045.045-.064.081-.04.05c-.021.026-.043.052-.062.081l-.038.05c-.021.031-.04.062-.059.092l-.028.045c-.026.047-.052.092-.076.142h0c-.021.047-.043.095-.059.14s0,.031-.019.045-.026.078-.038.116a.221.221,0,0,0,0,.031q-.021.071-.036.142a.306.306,0,0,0,0,.045.95.95,0,0,1-.019.114.209.209,0,0,0,0,.038v.142a.258.258,0,0,1,0,.043v.325a.25.25,0,0,0,.017.109v.04a.538.538,0,0,0,.031.133l.014.043a.321.321,0,0,0,.033.1.258.258,0,0,0,0,.04c.017.04.033.083.052.123a.337.337,0,0,1,.019.043l.05.1a.314.314,0,0,0,.019.033c.007.009.045.078.069.116l.028.04.066.092L4.92,10c.028.036.057.069.088.1l.031.036c.031.033.064.064.1.095h0a2.115,2.115,0,0,0-1.5,2.016h0a.712.712,0,0,0,0,.074c0,.033,0,.069,0,.1v.047l.014.126v.031a.568.568,0,0,0,.028.138.185.185,0,0,0,.012.033,1.131,1.131,0,0,0,.036.128l.024.057a.27.27,0,0,0,.038.1c.014.031.028.059.043.088l.057.076c.021.04.045.078.069.116a.1.1,0,0,0,.017.026,2.106,2.106,0,0,0,1.171.892h0l-.1.1-.028.028-.095.111v.014c-.026.033-.052.069-.076.1a.308.308,0,0,0-.024.036,1.231,1.231,0,0,0-.074.119.1.1,0,0,0-.012.021c-.021.038-.038.074-.057.111l-.017.036c-.019.043-.038.088-.055.133v.024c-.014.038-.026.078-.038.119s0,.024,0,.033c-.014.047-.024.095-.033.14a.123.123,0,0,0,0,.026,1.16,1.16,0,0,0-.021.126.121.121,0,0,1,0,.031v.3a.156.156,0,0,0,0,.033v.149a.119.119,0,0,1,0,.028,1.224,1.224,0,0,0,.021.123v.04a.538.538,0,0,0,.036.145v.026c.014.04.026.081.043.121a.318.318,0,0,0,.017.043,1,1,0,0,0,.059.138h0l.071.135a.567.567,0,0,1,.031.05l.059.09.038.052.059.078.043.05.064.071.047.047.069.066.047.04c.026.024.052.043.078.064l.047.036c.031.024.066.045.1.066l.031.021c.043.026.088.052.135.076l.043.021.1.045.057.024.09.033.062.019.088.026.064.017.092.019h.062l.1.014h.36a.5.5,0,0,0,.166-.019,1.615,1.615,0,0,0-.062.18q0,.021,0,.043c0,.014-.024.092-.033.138s0,.04-.012.059a.538.538,0,0,0-.017.126v.254a.258.258,0,0,0,0,.043v.152a.463.463,0,0,0,.019.142.185.185,0,0,0,0,.033.5.5,0,0,0,.026.111.275.275,0,0,0,0,.043.451.451,0,0,0,.04.133.057.057,0,0,1,0,.019c.017.04.031.083.05.123a.337.337,0,0,0,.019.043.842.842,0,0,0,.05.1l.014.031c.024.043.047.085.074.126l.024.036a1.055,1.055,0,0,0,.064.092l.026.036c.031.04.062.078.095.114l.024.026.083.088.036.031.111.1h0a1.57,1.57,0,0,0,.147.109l.043.026.109.066.062.031c.031.014.062.033.095.047l.071.028.09.036.076.024.088.026.081.019.088.017a.162.162,0,0,1,.081.014H9.07l.126-.019h.059a.693.693,0,0,0,.18-.045h.036c.047-.014.1-.033.145-.052h.019l.111-.038-.1.047a2,2,0,0,0,.448.126,2.111,2.111,0,0,0,1.582,1.572h0a2.111,2.111,0,0,0,2.3-1.008,2.108,2.108,0,0,0,3.937-.892,2.111,2.111,0,0,0,3.161-2.5,2.108,2.108,0,0,0,1.76-3.633,2.111,2.111,0,0,0,1.5-2.011V12.28a2.111,2.111,0,0,0-1.5-2.023ZM10.075,3.925ZM9.888,4l-.111-.057Zm.152.095-.116-.074ZM9.888,20.54q-.069.04-.135.071Q9.817,20.58,9.888,20.54Zm.024,0c.045-.026.088-.055.13-.083h0a.82.82,0,0,0-.135.071Z" transform="translate(-2.771 -1.626)" fill="#ffb900"></path>
            <path id="Path_2010" d="M94.131,10.672,92.193,1.366A1.734,1.734,0,0,0,91.14.112h0a1.729,1.729,0,0,0-2.371,1.439L88.33,6.033Z" transform="translate(-67.38 0.015)" fill="#8f9bd0"></path>
            <path id="Path_2011" d="M10.675,93.208,1.369,91.271A1.734,1.734,0,0,1,.115,90.218h0a1.731,1.731,0,0,1,1.439-2.371l4.482-.436Z" transform="translate(0.011 -66.678)" fill="#8f9bd0"></path>
            <path id="Path_2012" d="M36.592,78.744l-7.8,2.4a1.221,1.221,0,0,1-1.534-.823L25.446,74.2a1.224,1.224,0,0,1,.657-1.458l6.55-3.047Z" transform="translate(-19.37 -53.16)" fill="#6074be"></path>
            <path id="Path_2013" d="M78.584,36.75l2.4-7.8a1.224,1.224,0,0,0-.821-1.534l-6.128-1.812a1.221,1.221,0,0,0-1.456.657l-3.05,6.543Z" transform="translate(-53.039 -19.492)" fill="#6074be"></path>
            <path id="Path_2014" d="M59.408,53.028,52.87,59.566a1.326,1.326,0,0,1-1.923-.05l-6.042-6.7a1.328,1.328,0,0,1,.047-1.826l5.881-5.869a1.326,1.326,0,0,1,1.826-.047L59.37,51.1a1.326,1.326,0,0,1,.038,1.923Z" transform="translate(-33.993 -34.119)" fill="#2e4aaa"></path>
            <ellipse id="Ellipse_227" cx="5.872" cy="6.106" rx="5.872" ry="6.106" transform="translate(5.068 4.948)" fill="#a4b0da"></ellipse>
            <circle id="Ellipse_228" cx="2.058" cy="2.058" r="2.058" transform="translate(8.881 8.996)" fill="#fff"></circle>
          </g>
        </g>
      </g>
    </g>
  </symbol>
  <symbol xmlns:xlink="http://www.w3.org/1999/xlink" xmlns="http://www.w3.org/2000/svg" viewBox="0 0 32 32" id="coffeshop">
    <g id="Group_2413" transform="translate(-1848 -40)">
      <rect id="Rectangle_2009" width="32" height="32" transform="translate(1848 40)" fill="none"></rect>
      <g id="B6" transform="translate(1850 44.752)">
        <g id="Layer_2">
          <g id="Layer_1">
            <path id="Path_2029" d="M92.514,25.56l-.979,8.334a10.686,10.686,0,0,1-10.066,9.442H80.9V25.56Z" transform="translate(-66.062 -20.872)" fill="#2e4aaa"></path>
            <path id="Path_2030" d="M29.333,25.56V43.336H28.8a10.708,10.708,0,0,1-10.088-9.442L17.75,25.56Z" transform="translate(-14.494 -20.872)" fill="#475fb4"></path>
            <path id="Path_2031" d="M9.254,99.86h26.3v1.247a2.935,2.935,0,0,1-2.935,2.935H12.185a2.935,2.935,0,0,1-2.935-2.935V99.86Z" transform="translate(-7.553 -81.544)" fill="#ffb900"></path>
            <path id="Path_2032" d="M5.163,46.786a5.163,5.163,0,1,1,5.163-5.163,5.163,5.163,0,0,1-5.163,5.163Zm0-8.235a3.072,3.072,0,1,0,3.072,3.072A3.072,3.072,0,0,0,5.163,38.551Z" transform="translate(0 -29.773)" fill="#475fb4"></path>
            <path id="Path_2033" d="M77.735,23h.422a.5.5,0,0,1,.5.5V29.97H77.24V23.5A.5.5,0,0,1,77.735,23Z" transform="translate(-63.073 -18.781)" fill="#ffb900"></path>
            <rect id="Rectangle_2012" width="4.778" height="5.436" rx="2.389" transform="translate(12.54 9.442)" fill="#ffb900"></rect>
            <ellipse id="Ellipse_243" cx="4.541" cy="4.723" rx="4.541" ry="4.723" transform="translate(10.334 0.496)" fill="#a4b0da"></ellipse>
            <circle id="Ellipse_244" cx="1.592" cy="1.592" r="1.592" transform="translate(13.283 3.131)" fill="#fff"></circle>
          </g>
        </g>
      </g>
    </g>
  </symbol>
  <symbol xmlns:xlink="http://www.w3.org/1999/xlink" xmlns="http://www.w3.org/2000/svg" viewBox="0 0 32 32" id="fastfood">
    <g id="Group_2414" transform="translate(-1848 -40)">
      <rect id="Rectangle_2009" width="32" height="32" transform="translate(1848 40)" fill="none"></rect>
      <g id="B5" transform="translate(1850 42.816)">
        <g id="Layer_2" transform="translate(0)">
          <g id="Layer_1">
            <path id="Path_2026" d="M28,88.509a18.365,18.365,0,0,1-28,.155l2.117-3.035a14.814,14.814,0,0,0,23.74-.139Z" transform="translate(0 -68.698)" fill="#ffb900"></path>
            <path id="Path_2027" d="M82.863,16.792a14.793,14.793,0,0,1-11.923,6.02V0Z" transform="translate(-57.006)" fill="#2e4aaa"></path>
            <path id="Path_2028" d="M22.6,0V22.812A14.783,14.783,0,0,1,10.78,16.932Z" transform="translate(-8.663)" fill="#475fb4"></path>
            <circle id="Ellipse_239" cx="2.206" cy="2.206" r="2.206" transform="translate(6.335 13.697)" fill="#8f9bd0"></circle>
            <circle id="Ellipse_240" cx="1.546" cy="1.546" r="1.546" transform="translate(18.756 15.13)" fill="#8f9bd0"></circle>
            <circle id="Ellipse_241" cx="1.705" cy="1.705" r="1.705" transform="translate(12.473 7.454)" fill="#fff"></circle>
            <ellipse id="Ellipse_242" cx="4.863" cy="5.058" rx="4.863" ry="5.058" transform="translate(12.357 4.054)" fill="#a4b0da"></ellipse>
          </g>
        </g>
      </g>
    </g>
  </symbol>
  <symbol xmlns="http://www.w3.org/2000/svg" viewBox="0 0 32 32" id="fast-food">
    <g id="Group_2414" transform="translate(-1848 -40)">
      <rect id="Rectangle_2009" width="32" height="32" transform="translate(1848 40)" fill="none"></rect>
      <g id="B5" transform="translate(1850 42.816)">
        <g id="Layer_2" transform="translate(0)">
          <g id="Layer_1">
            <path id="Path_2026" d="M28,88.509a18.365,18.365,0,0,1-28,.155l2.117-3.035a14.814,14.814,0,0,0,23.74-.139Z" transform="translate(0 -68.698)" fill="#ffb900"></path>
            <path id="Path_2027" d="M82.863,16.792a14.793,14.793,0,0,1-11.923,6.02V0Z" transform="translate(-57.006)" fill="#2e4aaa"></path>
            <path id="Path_2028" d="M22.6,0V22.812A14.783,14.783,0,0,1,10.78,16.932Z" transform="translate(-8.663)" fill="#475fb4"></path>
            <circle id="Ellipse_239" cx="2.206" cy="2.206" r="2.206" transform="translate(6.335 13.697)" fill="#8f9bd0"></circle>
            <circle id="Ellipse_240" cx="1.546" cy="1.546" r="1.546" transform="translate(18.756 15.13)" fill="#8f9bd0"></circle>
            <circle id="Ellipse_241" cx="1.705" cy="1.705" r="1.705" transform="translate(12.473 7.454)" fill="#fff"></circle>
            <ellipse id="Ellipse_242" cx="4.863" cy="5.058" rx="4.863" ry="5.058" transform="translate(12.357 4.054)" fill="#a4b0da"></ellipse>
          </g>
        </g>
      </g>
    </g>
  </symbol>
  <symbol xmlns:xlink="http://www.w3.org/1999/xlink" xmlns="http://www.w3.org/2000/svg" viewBox="0 0 32 32" id="fruit">
    <g id="Group_2412" transform="translate(-1848 -40)">
      <rect id="Rectangle_2009" width="32" height="32" transform="translate(1848 40)" fill="none"></rect>
      <g id="B8" transform="translate(1850.898 44.008)">
        <g id="Layer_2" transform="translate(0 -0.008)">
          <g id="Layer_1" transform="translate(0 0)">
            <path id="Path_2037" d="M20.972,11.56V33.514A11.223,11.223,0,0,1,9.52,22.536,11.224,11.224,0,0,1,20.972,11.56Z" transform="translate(-7.837 -9.514)" fill="#475fb4"></path>
            <path id="Path_2038" d="M85.752,22.536A11.224,11.224,0,0,1,74.3,33.514h0V11.56h0A11.221,11.221,0,0,1,85.752,22.536Z" transform="translate(-61.161 -9.514)" fill="#2e4aaa"></path>
            <path id="Path_2039" d="M0,113.09H26.2v1.164a2.829,2.829,0,0,1-2.829,2.829H2.829A2.829,2.829,0,0,1,0,114.254Z" transform="translate(0 -93.09)" fill="#ffb900"></path>
            <path id="Path_2040" d="M81.331,1.247A7.579,7.579,0,0,1,88.491.6a6.9,6.9,0,0,1-3.116,6.214,7.565,7.565,0,0,1-7.158.638,6.9,6.9,0,0,1,3.114-6.209Z" transform="translate(-64.374 0.008)" fill="#ffb900"></path>
            <ellipse id="Ellipse_248" cx="4.523" cy="4.509" rx="4.523" ry="4.509" transform="translate(11.47 5.16)" fill="#a4b0da"></ellipse>
            <ellipse id="Ellipse_249" cx="1.586" cy="1.521" rx="1.586" ry="1.521" transform="translate(12.578 5.849)" fill="#fff"></ellipse>
          </g>
        </g>
      </g>
    </g>
  </symbol>
  <symbol xmlns:xlink="http://www.w3.org/1999/xlink" xmlns="http://www.w3.org/2000/svg" viewBox="0 0 32 32" id="gift">
    <g id="Group_2425" transform="translate(-1848 -40)">
      <rect id="Rectangle_2009" width="32" height="32" transform="translate(1848 40)" fill="none"></rect>
      <g id="gift" transform="translate(1853.115 43.221)">
        <g id="Layer_2" transform="translate(-1.252 -1.221)">
          <g id="Layer_1" transform="translate(0 0)">
            <path id="Path_2096" d="M11.229,31.78V49.816h-8.5A1.733,1.733,0,0,1,1,48.083V33.495A1.715,1.715,0,0,1,2.718,31.78Z" transform="translate(-0.32 -21.816)" fill="#3a4ba7"></path>
            <path id="Path_2097" d="M45.148,34.992V48.083a1.73,1.73,0,0,1-1.733,1.733H34.88V31.78H45.145Z" transform="translate(-23.971 -21.816)" fill="#505fb1"></path>
            <rect id="Rectangle_2015" width="4.547" height="18.045" transform="translate(8.608 9.955)" fill="#ffb900"></rect>
            <rect id="Rectangle_2016" width="23.359" height="6.603" rx="3.301" transform="translate(1.849 0) rotate(16.26)" fill="#3a4ba7"></rect>
            <rect id="Rectangle_2017" width="4.547" height="6.642" transform="translate(10.595 2.524) rotate(16.26)" fill="#ffb900"></rect>
            <ellipse id="Ellipse_268" cx="5.284" cy="5.495" rx="5.284" ry="5.495" transform="translate(5.704 4.665)" fill="#a7afd8"></ellipse>
            <circle id="Ellipse_269" cx="1.854" cy="1.854" r="1.854" transform="translate(9.134 8.306)" fill="#fff"></circle>
          </g>
        </g>
      </g>
    </g>
  </symbol>
  <symbol xmlns:xlink="http://www.w3.org/1999/xlink" xmlns="http://www.w3.org/2000/svg" viewBox="0 0 32 32" id="grocery">
    <defs></defs>
    <g id="Group_3097" transform="translate(-1848 -40)">
      <rect id="Rectangle_2009" width="32" height="32" transform="translate(1848 40)"></rect>
      <g id="attari" transform="translate(1851.126 41.992)">
        <g id="Layer_2" transform="translate(0 0.008)">
          <g id="Layer_1" transform="translate(0 0)">
            <path id="Path_2800" d="M10.175,15.39V39.064H3.294L4.431,33.82,0,15.39Z" transform="translate(0 -11.136)"></path>
            <path id="Path_2801" d="M42.786,34.086l1.128,4.978H36.79V15.39H47.211Z" transform="translate(-26.615 -11.136)"></path>
            <path id="Path_2802" d="M64.078,61.392s-5.705-.857-8.692,2.132-2.132,8.7-2.132,8.7,5.7.857,8.692-2.132S64.078,61.392,64.078,61.392Z" transform="translate(-38.444 -44.333)"></path>
            <path id="Path_2803" d="M36.77,53.157c0,4.226,4.641,7.655,4.641,7.655l1.245-6.87L41.411,45.51S36.77,48.928,36.77,53.157Z" transform="translate(-26.601 -32.926)"></path>
            <path id="Path_2804" d="M53.55,45.48V60.79s4.641-3.429,4.641-7.655S53.55,45.48,53.55,45.48Z" transform="translate(-38.74 -32.904)"></path>
            <path id="Path_2805" d="M57.551,1.984,56.444,4.262H53.38l1.7-3.485A1.383,1.383,0,0,1,56.92.144h0a1.383,1.383,0,0,1,.631,1.839Z" transform="translate(-38.617 -0.008)"></path>
            <ellipse id="Ellipse_424" cx="5.08" cy="4.884" rx="5.08" ry="4.884" transform="translate(5.044 16.179)"></ellipse>
            <circle id="Ellipse_425" cx="1.712" cy="1.712" r="1.712" transform="translate(8.413 19.351)"></circle>
          </g>
        </g>
      </g>
    </g>
  </symbol>
  <symbol xmlns:xlink="http://www.w3.org/1999/xlink" xmlns="http://www.w3.org/2000/svg" viewBox="0 0 32 32" id="juice-icecream">
    <g id="Group_2411" transform="translate(-1848 -40)">
      <rect id="Rectangle_2009" width="32" height="32" transform="translate(1848 40)" fill="none"></rect>
      <g id="B9" transform="translate(1851.236 43)">
        <g id="Layer_2" transform="translate(0 0)">
          <g id="Layer_1" transform="translate(0 0)">
            <path id="Path_2041" d="M90.926,35V52.806a1.819,1.819,0,0,1-1.834,1.819h-6.7V35Z" transform="translate(-67.401 -28.632)" fill="#475fb4"></path>
            <path id="Path_2042" d="M44.006,35.02V54.643H35.47V35.02Z" transform="translate(-29.017 -28.649)" fill="#2e4aaa"></path>
            <path id="Path_2043" d="M48.131,11.87l-4.124,4.212H35.47l4.124-4.212Z" transform="translate(-29.017 -9.71)" fill="#8f9bd0"></path>
            <path id="Path_2044" d="M66.56,2.16,66.529.466A.475.475,0,0,0,66.052,0H58.471A.477.477,0,0,0,58,.482l.031,1.677" transform="translate(-47.448 0)" fill="#2e4aaa"></path>
            <path id="Path_2045" d="M90.926,16.082H82.39l4.124-4.212Z" transform="translate(-67.401 -9.71)" fill="#475fb4"></path>
            <rect id="Rectangle_2013" width="0.819" height="0.004" transform="translate(6.027 25.995)" fill="#ffb800"></rect>
            <path id="Path_2046" d="M6.45,65.79V79.815H4.7A1.47,1.47,0,0,1,6.024,78.36V71.408a1.079,1.079,0,0,1-.113-.011c-.158-.015-.313-.035-.468-.058a.888.888,0,0,1-.155-.027c-.151-.027-.3-.062-.451-.1l-.147-.042a6.5,6.5,0,0,1-1.13-.442l-.135-.069q-.2-.109-.388-.224L2.986,70.4c-.067-.04-.133-.086-.2-.129l-.131-.093c-.016-.015-.038-.029-.055-.042l-.166-.12H2.425c-.036-.031-.075-.062-.116-.093l-.257-.226c-.025-.025-.049-.049-.076-.073a6.513,6.513,0,0,1-.509-.546c-.033-.036-.064-.078-.095-.116l-.1-.129-.084-.116c-.035-.042-.062-.082-.093-.124s-.055-.086-.082-.127-.055-.082-.082-.12-.053-.089-.076-.131c-.055-.085-.1-.182-.151-.26-.02-.042-.038-.08-.058-.118s-.035-.067-.051-.1A6.2,6.2,0,0,1,.171,66.6c-.013-.04-.024-.078-.033-.12a1.16,1.16,0,0,1-.029-.12.435.435,0,0,0-.024-.093C.051,66.108.024,65.95,0,65.79Z" transform="translate(0 -53.821)" fill="#ffb800"></path>
            <path id="Path_2047" d="M42.051,65.79a6.448,6.448,0,0,1-.713,2.163,6.661,6.661,0,0,1-1.375,1.759,6.943,6.943,0,0,1-.615.5c-.086.062-.182.12-.264.182l-.135.082c-.138.082-.275.162-.42.233l-.14.073c-.1.045-.2.089-.295.131s-.2.082-.3.12a6.533,6.533,0,0,1-1.952.389v6.944A1.455,1.455,0,0,1,37.1,79.821H35.45V65.79Z" transform="translate(-29 -53.821)" fill="#ffb800"></path>
            <ellipse id="Ellipse_250" cx="4.505" cy="4.685" rx="4.505" ry="4.685" transform="translate(1.888 7.461)" fill="#a4b0da"></ellipse>
            <circle id="Ellipse_251" cx="1.579" cy="1.579" r="1.579" transform="translate(7.741 10.41)" fill="#fff"></circle>
          </g>
        </g>
      </g>
    </g>
  </symbol>
  <symbol xmlns="http://www.w3.org/2000/svg" xmlns:xlink="http://www.w3.org/1999/xlink" viewBox="0 0 164.117 48" id="logo">
    <defs>
      <linearGradient id="a" x1="0.815" y1="0.259" x2="0.042" y2="0.98" gradientUnits="objectBoundingBox">
        <stop offset="0" stop-color="#f6cc36"></stop>
        <stop offset="1" stop-color="#fe8a3b"></stop>
      </linearGradient>
      <linearGradient id="b" x1="0.733" y1="0.23" x2="-0.056" y2="0.752" xlink:href="#a"></linearGradient>
      <linearGradient id="c" x1="0.897" y1="0.092" x2="-0.068" y2="0.809" xlink:href="#a"></linearGradient>
      <linearGradient id="d" x1="0.307" y1="0.673" x2="0.985" y2="-0.126" xlink:href="#a"></linearGradient>
      <linearGradient id="e" x1="0" y1="0.5" x2="1" y2="0.5" xlink:href="#a"></linearGradient>
      <linearGradient id="f" x1="0.768" y1="0.184" x2="0.081" y2="1.052" xlink:href="#a"></linearGradient>
      <linearGradient id="g" x1="0.725" y1="0.229" x2="-0.108" y2="1.217" xlink:href="#a"></linearGradient>
    </defs>
    <g transform="translate(0 0.003)">
      <g transform="translate(0 -0.003)">
        <path d="M215.712,47.274l-.661,11.985a5.927,5.927,0,0,0,5.918,6.255h5.085a6.4,6.4,0,0,0,6.395-6.039l.671-12.128a5.816,5.816,0,0,0-5.81-6.137h-5.187a6.42,6.42,0,0,0-6.411,6.064Zm9.169,12.78H222.72a1.99,1.99,0,0,1-1.971-2.1l.544-9.144a2.374,2.374,0,0,1,2.371-2.225h1.773a2.524,2.524,0,0,1,2.517,2.673l-.5,8.4A2.543,2.543,0,0,1,224.881,60.054Z" transform="translate(-146.696 -28.111)"></path>
        <path d="M275.292,47.274l-.661,11.985a5.927,5.927,0,0,0,5.921,6.255h5.085a6.408,6.408,0,0,0,6.4-6.04l.667-12.127a5.816,5.816,0,0,0-5.81-6.137H281.7A6.417,6.417,0,0,0,275.292,47.274Zm9.179,12.78H282.3a1.986,1.986,0,0,1-1.983-2.1l.54-9.144a2.374,2.374,0,0,1,2.371-2.225H285a2.524,2.524,0,0,1,2.517,2.673l-.5,8.4a2.562,2.562,0,0,1-2.552,2.4Z" transform="translate(-187.34 -28.111)"></path>
        <path d="M173.892,40.994l-10.806-.044a1.491,1.491,0,0,0-1.465,1.208l-.388,2.447a1.494,1.494,0,0,0,1.475,1.764h7.475L160.55,58.221l-.47,3.477a3.177,3.177,0,0,0,2.946,3.569h11.922a1.2,1.2,0,0,0,1.179-.972l.528-3.01a1.2,1.2,0,0,0-1.179-1.43l-9.169-.054,10.231-12.681.489-2.409A3.156,3.156,0,0,0,173.892,40.994Z" transform="translate(-109.183 -27.934)"></path>
        <path d="M351.234,44.582l-.143,2.682-.922,12.4a6.121,6.121,0,0,1-6.105,5.67h-3.226a.528.528,0,0,1-.528-.582l.4-4.361a.534.534,0,0,1,.528-.48h.731c1.719,0,2.813-.953,2.911-2.19l.658-7.892h0l.048-1.907a1.411,1.411,0,0,0-1.414-1.516l-2.454.029a1.963,1.963,0,0,0-1.907,2.1l-1.271,16.778H333l1-18.145A6.531,6.531,0,0,1,340.533,41h7.31a3.4,3.4,0,0,1,3.391,3.582Z" transform="translate(-227.164 -27.968)"></path>
        <path d="M431.644,64.123l-1.57-2.139-5.915-7.494,6.08-7.024a1.977,1.977,0,0,0-.149-2.74l-1.176-1.087a1.971,1.971,0,0,0-2.832.153l-5.419,6.271-5.457-6.913s-1.519-2-5.158-1.99H399.092a5.861,5.861,0,0,0-5.842,5.451l-.826,12.815c-.235,3.388,3.057,6.055,5.654,6.055h8.534l.785-5.46h-8.314a1.17,1.17,0,0,1-1.166-1.246l.245-2.727h8.645a1.37,1.37,0,0,0,1.367-1.249l.235-2.676a1.37,1.37,0,0,0-1.363-1.5h-8.55l.134-2.133a2.145,2.145,0,0,1,2.145-2.009l8.7.048a2.784,2.784,0,0,1,2.269,1.055l5.273,6.712-4.392,5.079a1.872,1.872,0,0,1-1.414.636l-2.145-.032-.772,5.451,2.914.041a7.548,7.548,0,0,0,5.705-2.609l3.579-4.132,5.3,6.751h5.158a.852.852,0,0,0,.7-1.357Z" transform="translate(-267.693 -28.077)"></path>
        <path d="M.124,14.551,0,33.154a5.4,5.4,0,0,0,2.667,4.691l16.047,9.411a5.4,5.4,0,0,0,5.4.035L40.291,38.1a5.4,5.4,0,0,0,2.727-4.653l.127-18.6a5.4,5.4,0,0,0-2.67-4.691L24.422.739A5.4,5.4,0,0,0,19.019.7L2.86,9.9A5.4,5.4,0,0,0,.124,14.551Z" transform="translate(0 0.003)"></path>
        <path d="M85.442,97.023l-12.694,7.215-.1.051a.753.753,0,0,1-1.109-.671.731.731,0,0,1,.1-.359.719.719,0,0,1,.051-.1,1.269,1.269,0,0,0,.07-.108l7.275-12.4,6.43,3.782a1.491,1.491,0,0,1-.019,2.581Z" transform="translate(-48.803 -61.845)"></path>
        <path d="M48.066,47.1a.636.636,0,0,0-.362.118,1.03,1.03,0,0,1-.111.067L34.9,54.48a4.971,4.971,0,0,1-4.942-.025l-6.236-3.614L16.207,63.659a2.482,2.482,0,0,0,.887,3.4l11.124,6.515,1.452.855a2.7,2.7,0,0,0,.359.178h0a4.961,4.961,0,0,0,4.631-.032.753.753,0,0,1-1.109-.671.731.731,0,0,1,.1-.359.719.719,0,0,1,.06-.1,1.27,1.27,0,0,0,.07-.108l7.275-12.4,7.507-12.808.06-.108h0a.6.6,0,0,0,.029-.067.578.578,0,0,0,.044-.222A.636.636,0,0,0,48.066,47.1Z" transform="translate(-10.823 -32.129)"></path>
        <path d="M50.281,22.22l-.092-.057L39.837,16.07l-2.257-1.325a4.964,4.964,0,0,0-4.98-.035L20.644,21.534a1.983,1.983,0,0,0-.019,3.439l5.67,3.328,6.236,3.614a4.971,4.971,0,0,0,4.942.025l12.694-7.2a1.03,1.03,0,0,0,.111-.067.631.631,0,0,1,1,.518.578.578,0,0,1-.044.222A2.473,2.473,0,0,0,50.281,22.22Z" transform="translate(-13.397 -9.589)"></path>
        <path d="M85.462,94.446l-5.883-3.458-.547-.318-7.275,12.4a.952.952,0,0,1-.07.1.521.521,0,0,0-.051.083.753.753,0,0,0,.655,1.119.791.791,0,0,0,.277-.051.48.48,0,0,0,.083-.038h0a.551.551,0,0,0,.1-.051L85.44,97.02a1.494,1.494,0,0,0,.022-2.574Zm-.318,2.031-12.694,7.215-.079.041a.118.118,0,0,1-.057,0h-.032a.121.121,0,0,1-.048-.029.114.114,0,0,1-.022-.032h0a.086.086,0,0,1,0-.038.155.155,0,0,1,0-.048l.022-.032c.035-.051.07-.1.1-.153l6.929-11.868L85.141,95a.858.858,0,0,1,0,1.481Z" transform="translate(-48.804 -61.852)"></path>
        <path d="M84.41,92.078l-5.88-3.442-.55-.318L77.433,88l-7.6,12.936-.032.051a1.148,1.148,0,0,0-.1.153,1.436,1.436,0,0,0-.172.658,1.3,1.3,0,0,0,0,.194.571.571,0,0,0,.019.1,1.187,1.187,0,0,0,.038.143,1.148,1.148,0,0,0,.051.133,1.348,1.348,0,0,0,.283.413,1.4,1.4,0,0,0,.165.143,1.354,1.354,0,0,0,.814.27h0a1.36,1.36,0,0,0,.6-.137l.051-.025.111-.06,12.694-7.211a2.129,2.129,0,0,0,.025-3.684Zm-.655,2.578L71.061,101.87l-.079.041a.118.118,0,0,1-.057,0h-.032a.121.121,0,0,1-.048-.029.137.137,0,0,1-.022-.032h0a.086.086,0,0,1,0-.038.156.156,0,0,1,0-.048l.022-.032c.035-.051.07-.1.1-.153l6.945-11.868,5.88,3.461a.858.858,0,0,1,0,1.481Z" transform="translate(-47.43 -60.03)"></path>
        <path d="M86.96,97.595a.836.836,0,0,1-.432.737l-12.694,7.215-.079.041a.118.118,0,0,1-.057,0h-.032a.121.121,0,0,1-.048-.029.115.115,0,0,1-.022-.032h0a.086.086,0,0,1,0-.038.156.156,0,0,1,0-.048l.022-.032c.035-.051.07-.1.1-.153L80.661,93.39l5.88,3.461a.842.842,0,0,1,.42.744Z" transform="translate(-50.203 -63.707)"></path>
        <path d="M48.069,47.1a.636.636,0,0,0-.366.118,1.288,1.288,0,0,1-.111.067L34.9,54.48a4.964,4.964,0,0,1-4.939-.025l-6.236-3.614-.318.55-7.2,12.268a2.482,2.482,0,0,0,.887,3.4l11.124,6.515,1.452.855a2.9,2.9,0,0,0,.359.178h0a4.964,4.964,0,0,0,3.464.432,5.047,5.047,0,0,0,1.176-.451.753.753,0,0,1-1.014-1.03.521.521,0,0,1,.051-.108.953.953,0,0,0,.07-.111l7.275-12.4.318-.55,7.186-12.259c.019-.038.041-.073.06-.108h0l.022-.048a.2.2,0,0,0,0-.022.563.563,0,0,0,.044-.219A.636.636,0,0,0,48.069,47.1ZM33.227,73.035l-.032.051a1.15,1.15,0,0,0-.1.153,1.437,1.437,0,0,0-.172.658,1.3,1.3,0,0,0,0,.194.953.953,0,0,0,.019.1,1.189,1.189,0,0,0,.038.143,1.147,1.147,0,0,0,.051.133,4.3,4.3,0,0,1-2.613-.385L30.265,74a2.26,2.26,0,0,1-.28-.137L17.418,66.51a1.847,1.847,0,0,1-.661-2.543l7.192-12.259,5.689,3.305a5.626,5.626,0,0,0,5.575.029L47.9,47.85l.041-.025a.687.687,0,0,0,.1-.06Z" transform="translate(-10.823 -32.129)"></path>
        <path d="M47.6,45.493l-.07-.067a1.271,1.271,0,0,0-.674-.3,1.139,1.139,0,0,0-.149,0H46.6a1.493,1.493,0,0,0-.238.041,1.243,1.243,0,0,0-.222.086,1.316,1.316,0,0,0-.159.1.34.34,0,0,1-.067.041L33.224,52.578a4.338,4.338,0,0,1-4.307-.022l-6.233-3.614-.55-.318-.318.547-.318.547L14.3,61.989a3.121,3.121,0,0,0,1.112,4.268L27.98,73.624a3.62,3.62,0,0,0,.4.2,5.584,5.584,0,0,0,5.181-.016l.051-.025-.311-.563-.3-.559a.118.118,0,0,1-.057,0h-.032a.121.121,0,0,1-.048-.029.114.114,0,0,1-.022-.032h0a.086.086,0,0,1,0-.038.156.156,0,0,1,0-.048l.022-.032c.035-.051.07-.1.1-.153L39.92,60.463l.318-.547.318-.547,7.2-12.278.137-.254v-.029h0a1.3,1.3,0,0,0,.073-.413A1.271,1.271,0,0,0,47.6,45.493ZM31.867,71.685l-.032.051a1.15,1.15,0,0,0-.1.153,1.437,1.437,0,0,0-.172.658,1.3,1.3,0,0,0,0,.194.572.572,0,0,0,.019.1,1.189,1.189,0,0,0,.038.143,1.147,1.147,0,0,0,.051.133,4.3,4.3,0,0,1-2.613-.385l-.156-.079a2.263,2.263,0,0,1-.28-.137L16.058,65.161a1.847,1.847,0,0,1-.661-2.543l7.192-12.259h0l5.689,3.305a5.626,5.626,0,0,0,5.575.029L46.544,46.5l.041-.025a.686.686,0,0,0,.1-.06Z" transform="translate(-9.463 -30.78)"></path>
        <path d="M49.4,49.16,34.582,74.44l-.032.051a1.149,1.149,0,0,0-.1.153,1.437,1.437,0,0,0-.172.658,1.3,1.3,0,0,0,0,.194.572.572,0,0,0,.019.1,1.189,1.189,0,0,0,.038.143,1.148,1.148,0,0,0,.051.133,4.3,4.3,0,0,1-2.613-.385l-.156-.079a2.26,2.26,0,0,1-.28-.137L18.773,67.915a1.847,1.847,0,0,1-.661-2.543L25.3,53.114l5.689,3.305a5.626,5.626,0,0,0,5.575.029l12.691-7.192.041-.025A.687.687,0,0,0,49.4,49.16Z" transform="translate(-12.178 -33.535)"></path>
        <path d="M51.47,24.234a2.47,2.47,0,0,0-1.189-2.015l-.092-.057L39.837,16.069l-2.257-1.325a4.971,4.971,0,0,0-4.98-.038L20.644,21.532a1.983,1.983,0,0,0-.019,3.439l5.123,3.007.55.318,6.236,3.617a4.964,4.964,0,0,0,4.939.025l12.694-7.2a1.286,1.286,0,0,0,.111-.067.636.636,0,0,1,.988.518.563.563,0,0,1-.045.219,2.457,2.457,0,0,0,.248-1.179Zm-.823-.318h-.108a.985.985,0,0,0-.238.041,1.243,1.243,0,0,0-.222.086,1.316,1.316,0,0,0-.159.1.34.34,0,0,1-.067.041L37.158,31.385a4.338,4.338,0,0,1-4.307-.022l-6.233-3.614-5.673-3.328a1.351,1.351,0,0,1,0-2.339l11.969-6.824a4.348,4.348,0,0,1,4.345.032L49.846,22.7l.1.067a1.827,1.827,0,0,1,.845,1.17,1.141,1.141,0,0,0-.149-.01Z" transform="translate(-13.397 -9.587)"></path>
        <path d="M49.253,20.29,36.54,12.812a5.616,5.616,0,0,0-5.619-.038L18.974,19.6a2.622,2.622,0,0,0-.025,4.539l5.123,3.007.55.318.547.318h0L30.858,31.1a5.626,5.626,0,0,0,5.575.029l12.691-7.192.041-.025a.527.527,0,0,0,.114-.1l.582.261.578.257a.814.814,0,0,0,.035-.076h0a3.089,3.089,0,0,0-1.22-3.96Zm.038,2.25h-.108a.985.985,0,0,0-.238.041,1.243,1.243,0,0,0-.222.086,1.316,1.316,0,0,0-.159.1.34.34,0,0,1-.067.041L35.8,30.009a4.338,4.338,0,0,1-4.307-.022l-6.233-3.614-5.673-3.328a1.351,1.351,0,0,1,0-2.339L31.56,13.883a4.348,4.348,0,0,1,4.345.032L48.491,21.32l.1.067a1.827,1.827,0,0,1,.845,1.17,1.141,1.141,0,0,0-.149-.01Z" transform="translate(-12.042 -8.212)"></path>
        <path d="M52.151,25.3a1.14,1.14,0,0,0-.149,0h-.108a.985.985,0,0,0-.238.041,1.242,1.242,0,0,0-.222.086,1.316,1.316,0,0,0-.159.1.34.34,0,0,1-.067.041L38.513,32.752a4.338,4.338,0,0,1-4.307-.022l-6.233-3.614L22.3,25.788a1.351,1.351,0,0,1,0-2.339L34.27,16.626a4.348,4.348,0,0,1,4.345.032L51.2,24.063l.1.067a1.827,1.827,0,0,1,.845,1.17Z" transform="translate(-14.753 -10.955)"></path>
      </g>
    </g>
  </symbol>
  <symbol xmlns:xlink="http://www.w3.org/1999/xlink" xmlns="http://www.w3.org/2000/svg" viewBox="0 0 32 32" id="makeup">
    <g id="Group_2427" transform="translate(-1848 -40)">
      <rect id="Rectangle_2009" width="32" height="32" transform="translate(1848 40)" fill="none"></rect>
      <g id="makeup" transform="translate(1852.42 42)">
        <g id="Layer_2" transform="translate(0 0)">
          <g id="Layer_1">
            <path id="Path_2098" d="M11.376,27.64v3.108H6.157a.239.239,0,0,1,0-.045V28.651A1.011,1.011,0,0,1,7.1,27.643h4.28Z" transform="translate(-4.442 -19.943)" fill="#929bce"></path>
            <path id="Path_2099" d="M13.8,20.376v2.019H9.52V21.381a1.011,1.011,0,0,1,1.011-1.011Z" transform="translate(-6.869 -14.698)" fill="#505fb1"></path>
            <path id="Path_2100" d="M30.311,28.651V30.7a.239.239,0,0,1,0,.045H24.9V27.64h4.483a1.011,1.011,0,0,1,.927,1.011Z" transform="translate(-17.966 -19.943)" fill="#929bce"></path>
            <path id="Path_2101" d="M18.32,0V5.678H15.78V1.011A1.011,1.011,0,0,1,16.791,0Z" transform="translate(-11.386 0)" fill="#3a4ba7"></path>
            <path id="Path_2102" d="M27.629,1.011V5.678H24.9V0h1.718a1.008,1.008,0,0,1,1.011,1.011Z" transform="translate(-17.966 0)" fill="#505fb1"></path>
            <path id="Path_2103" d="M29.383,21.4v1.011H24.9V20.39h3.461A1.011,1.011,0,0,1,29.383,21.4Z" transform="translate(-17.966 -14.712)" fill="#505fb1"></path>
            <circle id="Ellipse_270" cx="7.365" cy="7.365" r="7.365" transform="translate(10.429 13.155)" fill="#ffb900"></circle>
            <path id="Path_2104" d="M6.934,38.8V56H1.011A1.014,1.014,0,0,1,0,54.985V39.811A1.014,1.014,0,0,1,1.011,38.8Z" transform="translate(0 -27.995)" fill="#3a4ba7"></path>
            <path id="Path_2105" d="M31.987,39.811V54.985A1.014,1.014,0,0,1,30.976,56H24.85V38.8h6.126a1.014,1.014,0,0,1,1.011,1.011Z" transform="translate(-17.93 -27.995)" fill="#505fb1"></path>
            <ellipse id="Ellipse_271" cx="4.873" cy="5.068" rx="4.873" ry="5.068" transform="translate(8.981 15.463)" fill="#a7afd8"></ellipse>
            <circle id="Ellipse_272" cx="1.71" cy="1.71" r="1.71" transform="translate(12.144 18.822)" fill="#fff"></circle>
          </g>
        </g>
      </g>
    </g>
  </symbol>
  <symbol xmlns:xlink="http://www.w3.org/1999/xlink" xmlns="http://www.w3.org/2000/svg" viewBox="0 0 32 32" id="meat">
    <g id="Group_2410" transform="translate(-1848 -40)">
      <rect id="Rectangle_2009" width="32" height="32" transform="translate(1848 40)" fill="none"></rect>
      <g id="B2" transform="translate(1851 43.074)">
        <g id="Layer_2" transform="translate(0 0)">
          <g id="Layer_1" transform="translate(0 0)">
            <rect id="Rectangle_2010" width="16.173" height="2.391" transform="translate(12.266 10.074) rotate(45)" fill="#ffb900"></rect>
            <path id="Path_2015" d="M17.353,27.4,11.47,22.622l11.089-11.1,4.769,6.1a7.032,7.032,0,0,1-.57,9.3h0A7.03,7.03,0,0,1,17.353,27.4Z" transform="translate(-9.185 -9.225)" fill="#475fb4"></path>
            <circle id="Ellipse_229" cx="7.835" cy="7.835" r="7.835" fill="#2e4aaa"></circle>
            <circle id="Ellipse_230" cx="3.046" cy="3.046" r="3.046" transform="translate(4.789 4.789)" fill="#8f9bd0"></circle>
            <circle id="Ellipse_231" cx="2.331" cy="2.331" r="2.331" transform="translate(19.466 21.191)" fill="#ffb900"></circle>
            <circle id="Ellipse_232" cx="2.331" cy="2.331" r="2.331" transform="translate(21.338 19.316)" fill="#ffb900"></circle>
            <ellipse id="Ellipse_233" cx="4.933" cy="5.13" rx="4.933" ry="5.13" transform="translate(2.903 2.705)" fill="#a4b0da"></ellipse>
            <circle id="Ellipse_234" cx="1.729" cy="1.729" r="1.729" transform="translate(6.106 6.106)" fill="#fff"></circle>
          </g>
        </g>
      </g>
    </g>
  </symbol>
  <symbol xmlns="http://www.w3.org/2000/svg" viewBox="0 0 32 32" id="resturant">
    <g id="Group_2407" transform="translate(-1848 -40)">
      <rect id="Rectangle_2009" width="32" height="32" transform="translate(1848 40)" fill="none"></rect>
      <g id="B7" transform="translate(1850 45.949)">
        <g id="Layer_2" transform="translate(0 0)">
          <g id="Layer_1" transform="translate(0 0)">
            <path id="Path_2034" d="M84.014,30.686H72V18.67c.195,0,.376,0,.565.014a1.647,1.647,0,0,1,.28.016c.086.016.195.014.277.025.288.027.573.06.849.109l.28.049c.279.053.553.115.826.195l.269.074a11.88,11.88,0,0,1,2.057.81c.084.039.162.082.243.123.241.134.479.269.711.415l.092.056c.123.078.245.16.364.241.08.055.158.113.24.166a.956.956,0,0,0,.1.076c.1.076.195.154.3.226h0a.244.244,0,0,0,.019.018c.072.055.14.113.21.169.162.132.317.273.469.413.047.045.092.09.138.13h0a12.034,12.034,0,0,1,.927.991l.171.21.167.214.158.208.164.23c.051.078.1.154.152.232s.1.146.148.222l.142.238c.093.156.195.314.271.475.039.07.072.138.109.208s.064.127.1.195a11.752,11.752,0,0,1,.779,2.061,2.223,2.223,0,0,1,.058.216c.023.072.039.144.056.22s.027.113.039.169c.066.288.117.584.158.874.027.167.047.343.066.516l.018.183a.934.934,0,0,0,.01.166c0,.1.018.195.019.292a.9.9,0,0,1,0,.1C84.013,30.367,84.014,30.525,84.014,30.686Z" transform="translate(-57.978 -15.034)" fill="#2e4aaa"></path>
            <path id="Path_2035" d="M22.308,18.67V30.686H10.29a11.843,11.843,0,0,1,.125-1.737,11.993,11.993,0,0,1,3.806-7.157h0a13.2,13.2,0,0,1,1.124-.906c.156-.111.316-.216.477-.323.084-.051.167-.1.247-.154.249-.15.5-.29.761-.425l.261-.13c.177-.084.353-.164.532-.241s.36-.144.547-.214A12.007,12.007,0,0,1,22.308,18.67Z" transform="translate(-8.286 -15.034)" fill="#475fb4"></path>
            <circle id="Ellipse_245" cx="1.488" cy="1.488" r="1.488" transform="translate(12.517)" fill="#2e4aaa"></circle>
            <path id="Path_2036" d="M.372,80.41H28.3v1.324a3.116,3.116,0,0,1-3.116,3.116H3.486A3.116,3.116,0,0,1,.37,81.734V80.41Z" transform="translate(-0.298 -64.75)" fill="#ffb900"></path>
            <ellipse id="Ellipse_246" cx="4.822" cy="5.015" rx="4.822" ry="5.015" transform="translate(0 3.192)" fill="#a4b0da"></ellipse>
            <circle id="Ellipse_247" cx="1.69" cy="1.69" r="1.69" transform="translate(3.132 6.517)" fill="#fff"></circle>
          </g>
        </g>
      </g>
    </g>
  </symbol>
  <symbol xmlns:xlink="http://www.w3.org/1999/xlink" xmlns="http://www.w3.org/2000/svg" viewBox="0 0 32 32" id="supermarket">
    <g id="Group_2409" transform="translate(-1848 -40)">
      <rect id="Rectangle_2009" width="32" height="32" transform="translate(1848 40)" fill="none"></rect>
      <g id="B3" transform="translate(1850 45.808)">
        <g id="Layer_2" transform="translate(0 -1.294)">
          <g id="Layer_1">
            <path id="Path_2016" d="M19.9,27.45H36.188a2.483,2.483,0,0,1,2.483,2.483V33.9H17.42V29.931A2.483,2.483,0,0,1,19.9,27.45Z" transform="translate(-14.015 -21.831)" fill="#ffb900"></path>
            <path id="Path_2017" d="M79.749,55.17l-1.222,2.645-.371.805a1.03,1.03,0,0,1-1.368.5.919.919,0,0,1-.135-.076,1.024,1.024,0,0,1-.391-1.228.289.289,0,0,1,.023-.057l.364-.782.831-1.8Z" transform="translate(-61.298 -44.133)" fill="#8f9bd0"></path>
            <path id="Path_2018" d="M85.692,44.19,82.729,55.383a3.859,3.859,0,0,1-1.056,1.791c-.055.053-.111.1-.17.154a3.894,3.894,0,0,1-1.173.688,3.773,3.773,0,0,1-1.325.238h-7.3V44.18Z" transform="translate(-57.692 -35.291)" fill="#2e4aaa"></path>
            <path id="Path_2019" d="M14.018,44.23V58.3H6.7a3.859,3.859,0,0,1-3.73-2.871L0,44.23Z" transform="translate(0 -35.331)" fill="#475fb4"></path>
            <rect id="Rectangle_2011" width="1.974" height="11.123" rx="0.987" transform="translate(22.187) rotate(30)" fill="#475fb4"></rect>
            <ellipse id="Ellipse_235" cx="4.84" cy="5.034" rx="4.84" ry="5.034" transform="translate(13.134 4.125)" fill="#a4b0da"></ellipse>
            <circle id="Ellipse_236" cx="1.697" cy="1.697" r="1.697" transform="translate(16.277 7.462)" fill="#fff"></circle>
          </g>
        </g>
      </g>
    </g>
  </symbol>
</svg>